PathFileType	4	(X/Y/Z)	TVC_16_BWA4_walk_RCNL2025.trc
DataRate	CameraRate	NumFrames	NumMarkers	Units	OrigDataRate	OrigDataStartFrame	OrigNumFrames
100	100	9	27	mm	100	237	947
Frame#	Time	R_Shoulder			L_Shoulder			C7			J_Notch			R_Elbow			L_Elbow			R_Wrist			L_Wrist			R_Asis			L_Asis			R_Psis			L_Psis			Sacral			Thoracic			Sternum			R_Thigh_Lateral			R_Knee_Lateral			R_Shank_Lateral			R_Ankle_Lateral			R_Heel			R_Toe			L_Thigh_Lateral			L_Knee_Lateral			L_Shank_Lateral			L_Ankle_Lateral			L_Heel			L_Toe		
		X1	Y1	Z1	X2	Y2	Z2	X3	Y3	Z3	X4	Y4	Z4	X5	Y5	Z5	X6	Y6	Z6	X7	Y7	Z7	X8	Y8	Z8	X9	Y9	Z9	X10	Y10	Z10	X11	Y11	Z11	X12	Y12	Z12	X13	Y13	Z13	X14	Y14	Z14	X15	Y15	Z15	X16	Y16	Z16	X17	Y17	Z17	X18	Y18	Z18	X19	Y19	Z19	X20	Y20	Z20	X21	Y21	Z21	X22	Y22	Z22	X23	Y23	Z23	X24	Y24	Z24	X25	Y25	Z25	X26	Y26	Z26	X27	Y27	Z27
237	2.36000000	-1283.867920	1281.364502	398.560974	-1343.714966	1261.677002	77.682503	-1369.751099	1339.927368	249.694138	-1259.165649	1185.720215	243.087402	-1378.906128	1004.966980	532.672607	-1370.250122	941.656799	21.639753	-1372.639099	778.682861	583.600922	-1286.547546	749.115143	88.523251	-1341.956177	859.657043	407.232422	-1408.849854	872.386475	153.144135	-1522.227295	923.776245	376.163452	-1548.613525	921.223022	272.113312	-1535.420410	922.499634	324.138382	-1485.973267	1099.946655	292.406464	-1267.281250	991.995361	246.945557	-1361.633667	585.804077	501.401459	-1309.627441	424.493591	396.019043	-1332.461182	268.113617	449.139648	-1393.860840	55.468376	377.860382	-1450.584351	51.166115	337.201385	-1278.538940	36.582008	321.715851	-1460.247803	589.167786	68.261185	-1439.069580	404.838440	147.801163	-1545.645142	287.376129	92.178116	-1651.107422	87.313713	172.018829	-1689.798828	97.412041	218.694672	-1526.339478	34.665833	206.305481
238	2.37000000	-1280.610962	1282.218018	400.501404	-1341.089844	1262.930054	79.746208	-1366.885620	1340.802612	251.874420	-1256.087402	1186.789917	244.838013	-1375.609375	1006.096924	535.154419	-1365.838745	943.072327	22.487583	-1369.453186	779.938141	586.699585	-1280.323608	750.791901	87.574360	-1338.031738	860.184631	408.212585	-1404.595337	873.523987	154.088989	-1518.284058	924.155090	378.097626	-1544.992065	921.693726	274.099731	-1531.638062	922.924408	326.098679	-1482.617310	1100.525146	294.500336	-1263.669800	993.235474	248.188736	-1358.959229	586.018494	502.328400	-1308.858643	424.213196	396.760742	-1331.996826	267.722290	449.665009	-1393.845337	55.342770	378.002960	-1450.597290	51.169022	337.442261	-1278.544556	36.562054	321.733673	-1455.674561	590.404175	68.597946	-1434.920654	405.634674	147.349747	-1542.395020	289.040710	91.765900	-1649.483154	89.696228	171.314178	-1688.079346	100.423058	217.966599	-1525.919678	34.643826	206.167587
239	2.38000000	-1277.459351	1283.063110	402.467743	-1338.594727	1264.210205	81.835281	-1364.149780	1341.665161	254.100327	-1253.090820	1187.890137	246.606934	-1372.253418	1007.130066	537.574707	-1361.539795	944.534485	23.328962	-1366.076721	781.082062	589.650330	-1274.111633	752.578094	86.568872	-1334.084717	860.773987	409.179749	-1400.432007	874.617004	155.052963	-1514.377686	924.476257	379.982910	-1541.397095	922.103394	276.025024	-1527.887390	923.289825	328.003967	-1479.332275	1101.055664	296.559509	-1260.104004	994.495911	249.426529	-1356.330200	586.202148	503.216858	-1308.142212	423.936829	397.481354	-1331.560425	267.334747	450.166168	-1393.838867	55.226601	378.133545	-1450.607178	51.156956	337.641754	-1278.551025	36.545311	321.741180	-1450.842163	591.591980	68.900764	-1430.561890	406.401550	146.884415	-1538.930054	290.698364	91.313759	-1647.726074	92.119545	170.553467	-1686.229858	103.509270	217.167145	-1525.475464	34.619396	206.048828
240	2.39000000	-1274.421753	1283.886963	404.457031	-1336.221313	1265.499878	83.941368	-1361.544189	1342.502319	256.362274	-1250.176758	1189.008545	248.393814	-1368.843750	1008.048828	539.924011	-1357.359741	946.022278	24.165552	-1362.510376	782.096741	592.444580	-1267.929260	754.457794	85.520912	-1330.136475	861.398499	410.148865	-1396.411133	875.632080	156.063477	-1510.516113	924.728516	381.805389	-1537.830688	922.440857	277.872925	-1524.173401	923.584686	329.839157	-1476.121582	1101.527588	298.572510	-1256.584229	995.763062	250.663376	-1353.732056	586.349121	504.072571	-1307.454346	423.661713	398.181458	-1331.138794	266.946991	450.648560	-1393.837769	55.115929	378.253052	-1450.612427	51.130886	337.803680	-1278.558228	36.531696	321.740631	-1445.785767	592.716736	69.188095	-1425.998413	407.129669	146.420715	-1535.258789	292.341125	90.830345	-1645.830811	94.574059	169.743286	-1684.247192	106.658020	216.301376	-1525.005737	34.589622	205.945435
241	2.40000000	-1271.507690	1284.678345	406.466156	-1333.959106	1266.782837	86.056068	-1359.068237	1343.302856	258.649963	-1247.345947	1190.133667	250.197876	-1365.387451	1008.837646	542.194092	-1353.301758	947.515442	24.999264	-1358.755554	782.967194	595.073608	-1261.793030	756.414551	84.444561	-1326.208862	862.031616	411.136627	-1392.571411	876.540771	157.141022	-1506.708008	924.903259	383.552612	-1534.294800	922.696777	279.628723	-1520.501404	923.800018	331.590668	-1472.988281	1101.931885	300.529144	-1253.110596	997.024475	251.903473	-1351.148315	586.456848	504.902069	-1306.771973	423.384979	398.862335	-1330.718628	266.555389	451.117249	-1393.838135	55.006821	378.362366	-1450.611816	51.092319	337.933014	-1278.566040	36.521069	321.734619	-1440.544067	593.766724	69.479004	-1421.234497	407.811340	145.976212	-1531.387329	293.960876	90.324799	-1643.793091	97.053276	168.888367	-1682.128662	109.858246	215.373962	-1524.509521	34.551876	205.850952
242	2.41000000	-1268.726318	1285.427490	408.491821	-1331.796631	1268.044067	88.171219	-1356.720215	1344.057251	260.952637	-1244.598633	1191.254639	252.017670	-1361.893066	1009.483887	544.378052	-1349.365234	948.995178	25.832069	-1354.813843	783.681732	597.528809	-1255.718262	758.431854	83.353727	-1322.321777	862.649719	412.160675	-1388.933350	877.322083	158.296997	-1502.963501	924.995422	385.213745	-1530.791626	922.864258	281.279785	-1516.877563	923.929840	333.246765	-1469.934448	1102.261963	302.420593	-1249.683472	998.268555	253.150726	-1348.561157	586.526245	505.712158	-1306.073486	423.103668	399.525909	-1330.286499	266.156769	451.576294	-1393.836182	54.895832	378.462280	-1450.603760	51.043064	338.034790	-1278.574463	36.513157	321.725830	-1435.155640	594.732788	69.792297	-1416.274292	408.440521	145.570160	-1527.317749	295.548676	89.806610	-1641.609741	99.554039	167.991364	-1679.872559	113.100975	214.388824	-1523.986084	34.504616	205.757339
243	2.42000000	-1266.086304	1286.126709	410.530579	-1329.721436	1269.270874	90.279037	-1354.497681	1344.757690	263.259430	-1241.934204	1192.361938	253.851105	-1358.369995	1009.978027	546.469666	-1345.546387	950.445129	26.665918	-1350.687561	784.232697	599.801483	-1249.718811	760.493195	82.261982	-1318.491943	863.234497	413.238373	-1385.496704	877.964233	159.532700	-1499.292847	925.003662	386.779602	-1527.322754	922.939026	282.815735	-1513.307800	923.971344	334.797668	-1466.961304	1102.513062	304.239716	-1246.303101	999.485291	254.408676	-1345.953369	586.560730	506.508972	-1305.339722	422.814911	400.174255	-1329.830200	265.748627	452.028137	-1393.828735	54.780380	378.553589	-1450.586914	50.985012	338.113312	-1278.583008	36.507545	321.716705	-1429.656006	595.608398	70.145744	-1411.121826	409.012817	145.223068	-1523.048584	297.094360	89.285461	-1639.279907	102.076111	167.053146	-1677.478149	116.379700	213.348877	-1523.435547	34.448296	205.656265
244	2.43000000	-1263.595215	1286.770752	412.578766	-1327.719971	1270.452515	92.372276	-1352.396729	1345.399170	265.559479	-1239.351807	1193.447388	255.695450	-1354.828735	1010.314392	548.463196	-1341.838623	951.851624	27.502758	-1346.379822	784.616364	601.883270	-1243.806763	762.582489	81.182472	-1314.732178	863.773499	414.385254	-1382.239502	878.465393	160.839661	-1495.707153	924.930298	388.242340	-1523.889771	922.919434	284.228546	-1509.798462	923.924866	336.235443	-1464.069336	1102.682983	305.980957	-1242.969604	1000.666138	255.680481	-1343.309082	586.565369	507.297241	-1304.555176	422.515991	400.809631	-1329.338623	265.329285	452.473541	-1393.813477	54.658978	378.637146	-1450.559326	50.919903	338.171539	-1278.591675	36.503639	321.709290	-1424.074585	596.389648	70.555511	-1405.781616	409.525116	144.956024	-1518.574463	298.586639	88.771156	-1636.805176	104.621506	166.073715	-1674.946655	119.690598	212.255997	-1522.859253	34.386204	205.540405
245	2.44000000	-1261.259155	1287.356812	414.632477	-1325.778442	1271.580688	94.444260	-1350.412598	1345.978394	267.842224	-1236.849487	1194.504517	257.547394	-1351.279785	1010.490845	550.353149	-1338.234009	953.203735	28.344666	-1341.895508	784.833160	603.766174	-1237.992432	764.684021	80.127838	-1311.051880	864.260864	415.613373	-1379.122192	878.832581	162.201416	-1492.216675	924.780701	389.595306	-1520.493286	922.806580	285.512665	-1506.354980	923.793640	337.553986	-1461.257812	1102.771484	307.640411	-1239.683350	1001.804321	256.968933	-1340.615723	586.545715	508.079803	-1303.708252	422.204559	401.434204	-1328.803589	264.897858	452.911774	-1393.789185	54.531277	378.713959	-1450.519775	50.849190	338.210663	-1278.599731	36.500683	321.705017	-1418.432861	597.074646	71.035721	-1400.260620	409.975586	144.790039	-1513.888062	300.013336	88.273582	-1634.189575	107.193550	165.053284	-1672.281494	123.032471	211.111313	-1522.260254	34.325115	205.404755
